<svg xmlns="http://www.w3.org/2000/svg" aria-hidden="true" style="position:absolute;width:0;height:0;overflow:hidden"><defs><symbol id="icon-arrow-back" viewBox="0 0 32 32"><path fill="none" stroke="#fcfcfc" stroke-linecap="round" stroke-linejoin="round" stroke-width="1.333" d="M21.333 26 10.666 16 21.333 6" style="stroke:var(--color1, #fcfcfc)"/></symbol><symbol id="icon-close" viewBox="0 0 32 32"><path fill="none" stroke="#222" stroke-width="1.333" d="M2.667.667h26.667a2 2 0 0 1 2 2v26.667a2 2 0 0 1-2 2H2.667a2 2 0 0 1-2-2V2.667a2 2 0 0 1 2-2z" style="stroke:var(--color2, #222)"/><path fill="none" stroke="#fcfcfc" stroke-linecap="round" stroke-linejoin="round" stroke-width="1.333" d="m7 7 9 9m0 0-9 9m9-9 9 9m-9-9 9-9" style="stroke:var(--color1, #fcfcfc)"/></symbol><symbol id="icon-email" viewBox="0 0 43 32"><path fill="#846cb5" d="M39.867 4.491 23.032 18.432a2.67 2.67 0 0 1-3.402 0L2.803 4.491a2.7 2.7 0 0 0-.136.843v21.333a2.67 2.67 0 0 0 2.667 2.667h32a2.67 2.67 0 0 0 2.667-2.667V5.334a2.7 2.7 0 0 0-.133-.843zM5.333 0h32a5.334 5.334 0 0 1 5.333 5.333v21.333a5.334 5.334 0 0 1-5.333 5.333h-32A5.334 5.334 0 0 1 0 26.666V5.333A5.334 5.334 0 0 1 5.333 0m-.56 2.667 14.869 12.275a2.67 2.67 0 0 0 3.387.008L38.048 2.667z" style="fill:var(--color3, #846cb5)"/></symbol><symbol id="icon-menu" viewBox="0 0 32 32"><path fill="none" stroke="#222" stroke-width="1.333" d="M2.667.667h26.667a2 2 0 0 1 2 2v26.667a2 2 0 0 1-2 2H2.667a2 2 0 0 1-2-2V2.667a2 2 0 0 1 2-2z" style="stroke:var(--color2, #222)"/><path fill="none" stroke="#fcfcfc" stroke-linecap="round" stroke-width="1.333" d="M7.5 9.5h17m-17 12h17m-17-6h17" style="stroke:var(--color1, #fcfcfc)"/></symbol></defs></svg>